<svg width="55" height="55" fill="none" xmlns="http://www.w3.org/2000/svg"><path opacity=".25" d="M25.667 7.333v-5.5a1.833 1.833 0 1 1 3.666 0v5.5a1.833 1.833 0 1 1-3.666 0Zm1.833 5.5A14.667 14.667 0 1 0 42.167 27.5 14.683 14.683 0 0 0 27.5 12.833ZM11.536 14.13a1.834 1.834 0 1 0 2.594-2.594L10.464 7.87a1.834 1.834 0 1 0-2.594 2.594l3.666 3.666Zm0 26.74L7.87 44.536a1.834 1.834 0 1 0 2.594 2.594l3.666-3.666a1.834 1.834 0 1 0-2.594-2.594Zm30.63-26.203a1.834 1.834 0 0 0 1.298-.537l3.666-3.666a1.834 1.834 0 1 0-2.594-2.594l-3.666 3.666a1.833 1.833 0 0 0 1.297 3.13Zm1.298 26.203a1.835 1.835 0 0 0-2.594 2.594l3.666 3.666a1.833 1.833 0 0 0 3.132-1.297 1.835 1.835 0 0 0-.538-1.297l-3.666-3.666ZM9.167 27.5a1.834 1.834 0 0 0-1.834-1.833h-5.5a1.833 1.833 0 1 0 0 3.666h5.5A1.833 1.833 0 0 0 9.167 27.5ZM27.5 45.833a1.834 1.834 0 0 0-1.833 1.834v5.5a1.833 1.833 0 1 0 3.666 0v-5.5a1.833 1.833 0 0 0-1.833-1.834Zm25.667-20.166h-5.5a1.833 1.833 0 1 0 0 3.666h5.5a1.833 1.833 0 1 0 0-3.666Z" fill="#BF7F04"/></svg>